<svg xmlns="http://www.w3.org/2000/svg" xml:space="preserve" width="200.32" height="26.56" style="shape-rendering:geometricPrecision;text-rendering:geometricPrecision;image-rendering:optimizeQuality;fill-rule:evenodd;clip-rule:evenodd" viewBox="0 0 881.7 117.31"><defs><style>.fil1{fill:#fefefe;fill-rule:nonzero}</style></defs><g id="Layer_x0020_1"><path d="M656.64 117.31H881.7V0H656.64v117.31zm41.99-22.9c-5.56 0-10.9-.76-16-2.29s-9.21-3.51-12.32-5.95l5.47-12.41c2.98 2.17 6.51 3.95 10.58 5.34 4.07 1.39 8.2 2.09 12.37 2.09 3.18 0 5.75-.32 7.7-.97 1.95-.65 3.39-1.54 4.32-2.7.93-1.15 1.39-2.47 1.39-3.97 0-1.9-.73-3.41-2.19-4.53s-3.38-2.04-5.76-2.75-5.02-1.39-7.9-2.03c-2.88-.65-5.76-1.44-8.64-2.39-2.88-.95-5.52-2.17-7.9-3.66-2.38-1.49-4.32-3.46-5.81-5.9-1.49-2.44-2.23-5.56-2.23-9.36 0-4.07 1.08-7.78 3.23-11.14 2.15-3.36 5.4-6.03 9.74-8.04 4.34-2 9.79-3 16.34-3 4.37 0 8.68.53 12.92 1.58s7.98 2.63 11.23 4.73l-4.97 12.51c-3.25-1.9-6.49-3.31-9.74-4.22-3.24-.92-6.42-1.37-9.54-1.37-3.11 0-5.66.37-7.65 1.12-1.99.74-3.41 1.71-4.27 2.9-.86 1.19-1.29 2.56-1.29 4.12 0 1.83.73 3.31 2.18 4.42 1.46 1.12 3.38 2.02 5.76 2.7 2.38.68 5.02 1.36 7.9 2.03 2.88.68 5.76 1.46 8.64 2.34 2.88.88 5.51 2.07 7.9 3.56 2.38 1.49 4.32 3.46 5.81 5.9 1.49 2.44 2.23 5.53 2.23 9.26 0 4-1.09 7.66-3.28 10.99-2.19 3.32-5.45 6-9.79 8.04-4.34 2.03-9.82 3.05-16.44 3.05zm31.4-1.22 31-71.21h15.9l31.1 71.21h-16.89l-22.26-55.02-22.35 55.02h-16.49zm22.69-15.26 5.08-12.51h22.1l5.06 12.51h-32.24zm85.41 16.48c-5.56 0-10.89-.76-16-2.29-5.1-1.53-9.21-3.51-12.32-5.95l5.47-12.41c2.98 2.17 6.51 3.95 10.58 5.34 4.08 1.39 8.2 2.09 12.37 2.09 3.18 0 5.75-.32 7.7-.97 1.95-.65 3.4-1.54 4.32-2.7.93-1.15 1.39-2.47 1.39-3.97 0-1.9-.73-3.41-2.19-4.53s-3.38-2.04-5.76-2.75-5.02-1.39-7.9-2.03c-2.88-.65-5.76-1.44-8.64-2.39-2.88-.95-5.52-2.17-7.9-3.66-2.38-1.49-4.32-3.46-5.81-5.9-1.49-2.44-2.23-5.56-2.23-9.36 0-4.07 1.08-7.78 3.23-11.14 2.15-3.36 5.4-6.03 9.74-8.04 4.34-2 9.79-3 16.34-3 4.37 0 8.68.53 12.92 1.58s7.98 2.63 11.23 4.73l-4.97 12.51c-3.25-1.9-6.49-3.31-9.74-4.22-3.25-.92-6.42-1.37-9.54-1.37-3.11 0-5.66.37-7.65 1.12-1.99.74-3.41 1.71-4.27 2.9-.86 1.19-1.29 2.56-1.29 4.12 0 1.83.73 3.31 2.19 4.42 1.46 1.12 3.38 2.02 5.76 2.7 2.38.68 5.02 1.36 7.9 2.03 2.88.68 5.76 1.46 8.64 2.34 2.88.88 5.51 2.07 7.9 3.56 2.38 1.49 4.32 3.46 5.81 5.9 1.49 2.44 2.23 5.53 2.23 9.26 0 4-1.09 7.66-3.28 10.99-2.18 3.32-5.45 6-9.79 8.04-4.34 2.03-9.82 3.05-16.44 3.05z" style="fill:#fefefe"/><path class="fil1" d="M34.13 93.45c-6.71 0-13.13-.92-19.28-2.76C8.7 88.85 3.75 86.46 0 83.52l6.59-14.96c3.59 2.62 7.85 4.76 12.75 6.44 4.91 1.68 9.88 2.51 14.91 2.51 3.83 0 6.93-.39 9.28-1.17 2.36-.78 4.09-1.86 5.21-3.25s1.68-2.98 1.68-4.78c0-2.29-.88-4.11-2.64-5.46-1.76-1.35-4.07-2.45-6.95-3.31-2.87-.86-6.05-1.68-9.52-2.45-3.47-.78-6.95-1.74-10.42-2.88-3.47-1.14-6.65-2.62-9.52-4.41-2.87-1.8-5.21-4.17-7.01-7.11-1.8-2.94-2.7-6.7-2.7-11.28 0-4.91 1.3-9.38 3.89-13.43 2.6-4.05 6.51-7.27 11.74-9.69 5.23-2.41 11.8-3.62 19.7-3.62 5.27 0 10.46.63 15.57 1.9 5.11 1.27 9.62 3.17 13.53 5.7L60.1 27.35c-3.91-2.29-7.82-3.99-11.74-5.09-3.91-1.1-7.75-1.66-11.5-1.66s-6.83.45-9.22 1.35c-2.4.9-4.11 2.07-5.15 3.5-1.04 1.43-1.56 3.09-1.56 4.97 0 2.21.88 3.99 2.64 5.33 1.76 1.35 4.07 2.43 6.95 3.25 2.87.82 6.05 1.64 9.52 2.45 3.47.82 6.95 1.76 10.42 2.82 3.47 1.06 6.65 2.49 9.52 4.29 2.87 1.8 5.21 4.17 7.01 7.11 1.8 2.94 2.69 6.66 2.69 11.16 0 4.82-1.32 9.24-3.95 13.24-2.63 4.01-6.57 7.24-11.8 9.69-5.23 2.45-11.84 3.68-19.82 3.68z"/><path id="_1" class="fil1" d="M113.66 92.96c-7.35 0-13.79-1.47-19.34-4.41-5.55-2.94-9.84-6.97-12.87-12.08C78.42 71.36 76.9 65.54 76.9 59c0-6.62 1.5-12.49 4.49-17.6 2.99-5.11 7.08-9.12 12.28-12.02 5.19-2.9 11.06-4.35 17.61-4.35 6.31 0 12 1.37 17.07 4.11s9.08 6.66 12.04 11.77c2.95 5.11 4.43 11.22 4.43 18.33 0 .74-.04 1.57-.12 2.51-.08.94-.16 1.82-.24 2.64H92.12V53.23h42.52l-7.19 3.31c0-3.43-.68-6.42-2.04-8.95-1.36-2.53-3.23-4.52-5.63-5.95-2.4-1.43-5.19-2.15-8.38-2.15-3.19 0-6.01.72-8.45 2.15-2.43 1.43-4.33 3.43-5.69 6.01-1.36 2.57-2.04 5.62-2.04 9.14v2.94c0 3.6.78 6.76 2.34 9.5 1.55 2.74 3.75 4.82 6.59 6.25 2.83 1.43 6.17 2.14 10 2.14 3.43 0 6.45-.53 9.04-1.59 2.6-1.06 4.97-2.66 7.13-4.78l9.94 11.04c-2.95 3.43-6.67 6.07-11.14 7.91-4.47 1.84-9.62 2.76-15.45 2.76z"/><path id="_2" class="fil1" d="M157.38 91.98 157.26.99h18.56l.12 90.99z"/><path id="_3" class="fil1" d="M193.43 91.98 193.31.99h18.56l.12 90.99z"/><path id="_4" class="fil1" d="M261.34 92.96c-7.35 0-13.79-1.47-19.34-4.41-5.55-2.94-9.84-6.97-12.87-12.08-3.03-5.11-4.55-10.93-4.55-17.47 0-6.62 1.5-12.49 4.49-17.6 2.99-5.11 7.08-9.12 12.28-12.02 5.19-2.9 11.06-4.35 17.61-4.35 6.31 0 12 1.37 17.07 4.11s9.08 6.66 12.04 11.77c2.95 5.11 4.43 11.22 4.43 18.33 0 .74-.04 1.57-.12 2.51-.08.94-.16 1.82-.24 2.64H239.8V53.23h42.52l-7.19 3.31c0-3.43-.68-6.42-2.04-8.95-1.36-2.53-3.23-4.52-5.63-5.95-2.39-1.43-5.19-2.15-8.38-2.15-3.2 0-6.01.72-8.45 2.15-2.43 1.43-4.33 3.43-5.69 6.01-1.36 2.57-2.04 5.62-2.04 9.14v2.94c0 3.6.78 6.76 2.34 9.5 1.56 2.74 3.75 4.82 6.59 6.25 2.83 1.43 6.17 2.14 10 2.14 3.43 0 6.45-.53 9.04-1.59 2.6-1.06 4.97-2.66 7.13-4.78l9.94 11.04c-2.95 3.43-6.67 6.07-11.14 7.91-4.47 1.84-9.62 2.76-15.45 2.76z"/><path id="_5" class="fil1" d="M304.93 91.98V26.01h17.85v18.64l-2.52-5.4c1.92-4.66 4.99-8.2 9.22-10.61s9.38-3.62 15.45-3.62v17.66c-.8-.08-1.52-.14-2.15-.18-.64-.04-1.32-.06-2.04-.06-5.11 0-9.24 1.49-12.4 4.48-3.15 2.98-4.73 7.62-4.73 13.92v31.15h-18.68z"/><path id="_6" class="fil1" d="m341.46 91.98 37.37-85.84h19.16l37.49 85.84h-20.36L384.46 16.2h7.67l-30.78 75.78h-19.88zm18.68-18.39 5.15-15.08h43.12l5.27 15.08h-53.54z"/><path id="_7" class="fil1" d="M525.43 25.03c5.11 0 9.64 1.04 13.59 3.13 3.95 2.08 7.07 5.27 9.34 9.56 2.27 4.29 3.41 9.79 3.41 16.49v37.77h-18.68V57.15c0-5.31-1.08-9.24-3.23-11.77-2.16-2.53-5.19-3.8-9.1-3.8-2.72 0-5.15.63-7.31 1.9-2.15 1.27-3.83 3.17-5.03 5.7-1.2 2.53-1.8 5.76-1.8 9.69v33.11h-18.68V57.15c0-5.31-1.06-9.24-3.17-11.77-2.12-2.53-5.13-3.8-9.04-3.8-2.71 0-5.15.63-7.31 1.9-2.15 1.27-3.83 3.17-5.03 5.7-1.2 2.53-1.8 5.76-1.8 9.69v33.11h-18.68V26.01h17.85v18.03l-3.35-5.27c2.23-4.5 5.41-7.91 9.52-10.24 4.11-2.33 8.8-3.5 14.07-3.5 5.91 0 11.08 1.53 15.51 4.6 4.43 3.06 7.37 7.75 8.8 14.04l-6.59-1.84c2.15-5.15 5.61-9.24 10.36-12.26 4.75-3.02 10.2-4.54 16.35-4.54z"/><path id="_8" class="fil1" d="M606.64 92.96c-5.43 0-10.18-1.23-14.25-3.68s-7.25-6.19-9.52-11.22c-2.27-5.03-3.41-11.38-3.41-19.07 0-7.77 1.08-14.14 3.23-19.13 2.16-4.99 5.27-8.71 9.34-11.16 4.07-2.45 8.94-3.68 14.61-3.68 6.07 0 11.52 1.41 16.35 4.23 4.83 2.82 8.66 6.77 11.5 11.83 2.83 5.07 4.25 11.04 4.25 17.9 0 6.95-1.42 12.96-4.25 18.03-2.84 5.07-6.67 8.99-11.5 11.77-4.83 2.78-10.28 4.17-16.35 4.17zm-38.09 22.81V26.01h17.85V39.5l-.36 19.62 1.2 19.5v37.16h-18.68zm34.85-38.5c3.11 0 5.89-.73 8.32-2.21 2.44-1.47 4.39-3.58 5.87-6.32 1.48-2.74 2.22-5.99 2.22-9.75 0-3.84-.74-7.11-2.22-9.81-1.48-2.7-3.43-4.78-5.87-6.26-2.43-1.47-5.21-2.21-8.32-2.21-3.11 0-5.91.73-8.38 2.21-2.48 1.47-4.43 3.56-5.87 6.26-1.44 2.7-2.16 5.97-2.16 9.81 0 3.76.72 7.01 2.16 9.75 1.44 2.74 3.39 4.84 5.87 6.32 2.48 1.47 5.27 2.21 8.38 2.21z"/></g></svg>